<svg width="546" height="139" viewBox="0 0 546 139" fill="none" xmlns="http://www.w3.org/2000/svg">
<path d="M45.3 73.495H9.19997L1.40997 136.86H17.465L20.505 112.16H38.745L40.455 98.195H22.215L23.545 87.46H43.59L45.3 73.495Z" fill="#D34491"/>
<path d="M109.01 73.495H92.9551L88.5851 109.595C87.3501 119.57 84.2151 122.895 76.2351 122.895C69.2051 122.895 65.6901 119.57 65.6901 112.92C65.6901 111.02 65.7851 109.5 65.9751 107.695L70.1551 73.495H54.1951L50.0151 107.695C49.5401 111.305 49.2551 114.725 49.2551 116.435C49.2551 129.925 59.2301 138.095 75.6651 138.095C84.9751 138.095 92.7651 135.53 97.3251 130.97C101.41 126.98 103.025 122.135 104.545 110.165L109.01 73.495Z" fill="#D34491"/>
<path d="M144.236 87.46H157.536L159.246 73.495H116.306L114.596 87.46H128.181L122.101 136.86H138.156L144.236 87.46Z" fill="#D34491"/>
<path d="M221.266 73.495H205.211L200.841 109.595C199.606 119.57 196.471 122.895 188.491 122.895C181.461 122.895 177.946 119.57 177.946 112.92C177.946 111.02 178.041 109.5 178.231 107.695L182.411 73.495H166.451L162.271 107.695C161.796 111.305 161.511 114.725 161.511 116.435C161.511 129.925 171.486 138.095 187.921 138.095C197.231 138.095 205.021 135.53 209.581 130.97C213.666 126.98 215.281 122.135 216.801 110.165L221.266 73.495Z" fill="#D34491"/>
<path d="M264.092 112.255C273.212 109.025 277.582 102.85 277.582 93.16C277.582 79.765 270.457 73.495 255.162 73.495H234.547L226.757 136.86H242.812L245.852 111.685L261.052 136.86H279.672L264.092 112.255ZM248.987 86.13H252.027C258.772 86.13 261.147 88.03 261.147 93.54C261.147 99.62 257.537 102.47 249.842 102.47H246.992L248.987 86.13Z" fill="#D34491"/>
<path d="M328.875 73.495H294.2L286.41 136.86H321.845L323.555 122.895H304.175L305.505 112.35H323.555L325.265 98.385H307.215L308.545 87.46H327.165L328.875 73.495Z" fill="#D34491"/>
<path d="M366.818 101.615L365.298 114.25H379.928C378.598 120.235 373.183 124.13 366.248 124.13C356.463 124.13 349.528 116.815 349.528 106.46C349.528 94.87 357.223 85.845 367.103 85.845C374.228 85.845 378.978 89.075 382.208 96.2L396.078 90.785C390.853 78.435 381.448 72.26 367.673 72.26C347.628 72.26 333.093 86.89 333.093 107.03C333.093 125.27 346.108 138.095 364.443 138.095C378.408 138.095 389.618 130.97 394.178 119.19C396.173 113.87 397.123 108.55 397.218 101.615H366.818Z" fill="#D34491"/>
<path d="M440.628 72.165C419.538 72.165 404.718 86.13 404.718 105.985C404.718 125.175 418.683 138.095 439.298 138.095C459.723 138.095 473.688 123.94 473.688 103.325C473.688 84.8 460.293 72.165 440.628 72.165ZM439.773 87.365C450.318 87.365 457.253 94.395 457.253 105.035C457.253 115.485 449.653 122.895 438.918 122.895C428.278 122.895 421.153 115.865 421.153 105.415C421.153 95.06 429.038 87.365 439.773 87.365Z" fill="#D34491"/>
<path d="M545.479 73.495H527.524L511.279 105.32C509.759 108.17 508.714 110.64 507.669 113.965C507.194 108.835 506.909 107.125 505.769 102.375L498.454 73.495H481.354L497.979 136.86H511.469L545.479 73.495Z" fill="#D34491"/>
<path d="M18.72 9.66H27.12L28.2 0.84H1.08L0 9.66H8.58L4.74 40.86H14.88L18.72 9.66Z" fill="#150810"/>
<path d="M67.7906 0.84H57.6506L55.9106 15.42H41.0906L42.8906 0.84H32.7506L27.8306 40.86H37.9706L40.0106 24.24H54.8306L52.7306 40.86H62.8706L67.7906 0.84Z" fill="#150810"/>
<path d="M98.0686 0.84H76.1686L71.2486 40.86H93.6286L94.7086 32.04H82.4686L83.3086 25.38H94.7086L95.7886 16.56H84.3886L85.2286 9.66H96.9886L98.0686 0.84Z" fill="#150810"/>
<path d="M120.173 0.84L115.252 40.86H131.152C135.772 40.86 138.112 40.44 140.452 39.12C144.352 36.9 146.512 33.12 146.512 28.62C146.512 23.94 144.172 21.18 139.072 20.04C143.512 18.06 145.613 14.82 145.613 10.08C145.613 6.48 144.052 3.6 141.292 2.1C139.552 1.2 137.213 0.84 132.952 0.84H120.173ZM129.292 8.82H131.152C134.872 8.82 136.012 9.66 136.012 12.42C136.012 15.54 134.152 16.86 129.772 16.86H128.333L129.292 8.82ZM127.432 24.12H130.492C134.872 24.12 136.132 24.96 136.132 27.84C136.132 31.44 134.153 32.88 129.113 32.88H126.352L127.432 24.12Z" fill="#150810"/>
<path d="M177.99 0.84H156.09L151.17 40.86H173.55L174.63 32.04H162.39L163.23 25.38H174.63L175.71 16.56H164.31L165.15 9.66H176.91L177.99 0.84Z" fill="#150810"/>
<path d="M209.394 3.72C205.434 1.2 201.834 0.0600033 197.754 0.0600033C189.174 0.0600033 183.054 5.4 183.054 12.84C183.054 18 185.214 20.7 192.294 24.24C196.014 26.1 196.974 27 196.974 28.8C196.974 31.26 194.814 32.82 191.514 32.82C188.934 32.82 186.714 31.98 183.174 29.58L178.614 37.26C184.014 40.56 187.314 41.64 192.114 41.64C201.054 41.64 207.414 35.94 207.414 27.96C207.414 22.62 205.194 19.8 198.534 16.74C194.394 14.82 193.434 13.86 193.434 11.88C193.434 9.78 195.234 8.46 197.994 8.46C200.094 8.46 202.314 9.42 204.954 11.4L209.394 3.72Z" fill="#150810"/>
<path d="M230.712 9.66H239.112L240.192 0.84H213.072L211.992 9.66H220.572L216.732 40.86H226.872L230.712 9.66Z" fill="#150810"/>
<path d="M278.103 0C264.783 0 255.423 8.82 255.423 21.36C255.423 33.48 264.243 41.64 277.263 41.64C290.163 41.64 298.983 32.7 298.983 19.68C298.983 7.98 290.523 0 278.103 0ZM277.563 9.6C284.223 9.6 288.603 14.04 288.603 20.76C288.603 27.36 283.803 32.04 277.023 32.04C270.303 32.04 265.803 27.6 265.803 21C265.803 14.46 270.783 9.6 277.563 9.6Z" fill="#150810"/>
<path d="M330.824 0.84H308.024L303.104 40.86H313.244L315.164 25.26H326.684L327.764 16.44H316.244L317.084 9.66H329.744L330.824 0.84Z" fill="#150810"/>
</svg>
